<?xml version="1.0" encoding="UTF-8"?>
<svg version="1.1" xmlns="http://www.w3.org/2000/svg" width="1536" height="1024">
<path d="M0 0 C506.88 0 1013.76 0 1536 0 C1536 337.92 1536 675.84 1536 1024 C1029.12 1024 522.24 1024 0 1024 C0 686.08 0 348.16 0 0 Z " fill="#FCDE66" transform="translate(0,0)"/>
<path d="M0 0 C0.65141464 -0.00846954 1.30282928 -0.01693909 1.97398376 -0.02566528 C4.10533729 -0.04886766 6.23596194 -0.05006164 8.36743164 -0.04882812 C9.86284161 -0.05593935 11.35824889 -0.06363973 12.85365295 -0.07189941 C15.97966101 -0.0853053 19.10541666 -0.08693043 22.23144531 -0.08105469 C26.22058933 -0.07515885 30.20851616 -0.1057617 34.19742489 -0.14617157 C37.28343635 -0.17212623 40.36915759 -0.17491911 43.45526314 -0.17127991 C44.92516707 -0.17296359 46.3950855 -0.18253326 47.86488152 -0.20042419 C55.95779197 -0.28811209 62.8433711 -0.34366208 69.09008789 5.41992188 C74.778815 11.17835425 77.0916331 18.11640902 79.69555664 25.61523438 C80.90156107 29.03802199 82.45957074 32.17507136 84.09008789 35.41992188 C84.72636539 36.96819714 85.34876108 38.52221215 85.96118164 40.08007812 C88.19327218 45.74859417 90.66811564 51.29595755 93.15258789 56.85742188 C98.71181288 69.38463862 103.885653 82.04947401 109.00708008 94.76049805 C109.85070514 96.83209583 110.7226766 98.89215796 111.60571289 100.94726562 C113.78429153 106.04399301 115.79829224 111.2046693 117.84008789 116.35742188 C121.0119224 124.33357621 124.26539423 132.25220662 127.75927734 140.09228516 C129.91747473 144.95671225 131.83242446 149.88632561 133.70727539 154.86523438 C135.74560223 160.10500112 137.94624115 165.27388224 140.1484375 170.4465332 C143.21275364 177.65430105 146.10393168 184.926314 148.98461914 192.20898438 C152.60137755 201.34001599 156.31919647 210.39771883 160.35180664 219.35351562 C161.83436473 222.72959424 163.15287332 226.15788916 164.46508789 229.60351562 C166.96250554 236.15036795 169.65029905 242.6017847 172.40258789 249.04492188 C173.36884423 251.31831241 174.33498919 253.59175029 175.30102539 255.86523438 C175.7725 256.97286133 176.24397461 258.08048828 176.72973633 259.22167969 C178.6704423 263.78435883 180.60118731 268.35118767 182.52758789 272.91992188 C182.832854 273.64131348 183.13812012 274.36270508 183.45263672 275.10595703 C186.3870131 282.06445886 189.16307803 289.08480619 191.94946289 296.10351562 C196.96809995 308.7350026 202.15312538 321.29042503 207.53540039 333.77148438 C209.61751727 338.65765816 211.63761194 343.56824725 213.65258789 348.48242188 C214.05155273 349.44986328 214.45051758 350.41730469 214.86157227 351.4140625 C220.81157774 365.92651324 220.81157774 365.92651324 220.09008789 372.41992188 C218.5652771 374.59950256 218.5652771 374.59950256 216.09008789 376.41992188 C213.2979987 376.8095513 210.90176227 376.95748173 208.11206055 376.92163086 C207.31156784 376.92703384 206.51107513 376.93243683 205.68632507 376.93800354 C203.04188987 376.95050349 200.39854096 376.933989 197.75415039 376.91601562 C195.91336002 376.91617061 194.07256931 376.91765959 192.23178101 376.92042542 C188.37320534 376.92181008 184.51500106 376.90924258 180.65649414 376.88647461 C175.71787029 376.85812967 170.77986541 376.86081558 165.84119606 376.87356472 C162.03897853 376.88053161 158.2369032 376.87272042 154.43470383 376.86030769 C152.6142977 376.85580019 150.79387626 376.85545026 148.97346878 376.85937309 C146.42429779 376.8622942 143.87596872 376.84573447 141.3269043 376.82397461 C140.57864883 376.82847626 139.83039337 376.83297791 139.0594635 376.83761597 C133.46472193 376.75854843 129.48670684 375.41383026 125.18383789 371.83398438 C117.1249189 362.78745276 113.62632142 351.41829102 109.77026367 340.15527344 C105.69237955 328.24704386 101.03224396 316.58054737 96.15649414 304.97851562 C92.09008789 295.22211968 92.09008789 295.22211968 92.09008789 291.41992188 C37.97008789 291.41992188 -16.14991211 291.41992188 -71.90991211 291.41992188 C-72.56991211 293.39992188 -73.22991211 295.37992188 -73.90991211 297.41992188 C-75.06691181 300.01432723 -76.24773944 302.58084163 -77.47241211 305.14257812 C-77.82007126 305.87690567 -78.16773041 306.61123322 -78.52592468 307.36781311 C-79.65050183 309.74098934 -80.77998503 312.1117888 -81.90991211 314.48242188 C-82.68594162 316.11561245 -83.46173825 317.74891369 -84.23730469 319.38232422 C-85.39234573 321.81425778 -86.54786935 324.2459552 -87.70503235 326.67687988 C-89.83345061 331.148322 -91.94895264 335.62535073 -94.04663086 340.11132812 C-107.81846932 369.52284549 -107.81846932 369.52284549 -122.90991211 375.41992188 C-126.50329208 376.55488116 -129.89572993 376.55982945 -133.65039062 376.58105469 C-134.31915222 376.58601959 -134.98791382 376.5909845 -135.67694092 376.59609985 C-137.88091064 376.61066148 -140.08480852 376.61751135 -142.28881836 376.62304688 C-143.82291159 376.62880074 -145.35700482 376.63455845 -146.89109802 376.64031982 C-150.10302057 376.65081094 -153.31491821 376.65666679 -156.52685547 376.66015625 C-160.64515355 376.66565465 -164.76312328 376.68971889 -168.88131809 376.7181282 C-172.04771396 376.73673135 -175.21403009 376.7419588 -178.380476 376.74349213 C-179.89915714 376.74652155 -181.41783679 376.75455986 -182.93646431 376.76767731 C-185.05750932 376.78469925 -187.17774287 376.78286828 -189.29882812 376.77636719 C-190.50587906 376.78001282 -191.71292999 376.78365845 -192.95655823 376.78741455 C-195.90991211 376.41992188 -195.90991211 376.41992188 -197.88560486 375.21014404 C-198.90991211 373.41992188 -198.90991211 373.41992188 -198.7253418 371.02026367 C-197.93198325 368.49030501 -197.01582462 366.20098233 -195.86303711 363.81445312 C-195.43716309 362.92717529 -195.01128906 362.03989746 -194.57250977 361.12573242 C-194.10635254 360.17093994 -193.64019531 359.21614746 -193.15991211 358.23242188 C-192.42780518 356.71805542 -192.42780518 356.71805542 -191.6809082 355.1730957 C-185.33128585 342.08741333 -178.78056251 329.10126743 -172.24389648 316.10839844 C-166.04480402 303.77941608 -159.92130443 291.42539106 -154.00097656 278.95996094 C-148.3137927 267.0153308 -142.33757587 255.21553139 -136.3894043 243.39941406 C-131.00995742 232.70624989 -125.67612207 221.99934027 -120.54272461 211.18554688 C-114.15989694 197.74580517 -107.46868668 184.46164069 -100.78491211 171.16992188 C-90.69036823 151.11539789 -90.69036823 151.11539789 -80.96180725 130.88175964 C-77.75991 124.0645717 -74.40755522 117.32966863 -71.01300049 110.60675049 C-68.90209206 106.42195892 -66.8034827 102.2309874 -64.70288086 98.04101562 C-64.25031921 97.13854095 -63.79775757 96.23606628 -63.33148193 95.3062439 C-55.1194783 78.9271356 -46.92194223 62.55133427 -39.08178711 45.99023438 C-36.12471119 39.74491089 -33.06212204 33.55581704 -29.91772461 27.40283203 C-29.20312097 25.99682167 -28.4954835 24.5872609 -27.79272461 23.17529297 C-26.63671187 20.85405431 -25.46260575 18.54272287 -24.28491211 16.23242188 C-23.9367041 15.5248877 -23.58849609 14.81735352 -23.22973633 14.08837891 C-18.40131332 4.74922195 -10.54238071 0.07596966 0 0 Z " fill="#222222" transform="translate(770.909912109375,291.580078125)"/>
<path d="M0 0 C4.94477053 0.01163943 9.8895046 0.01574044 14.83428812 0.01529324 C42.32804386 0.01309511 69.81838652 0.06020993 97.30694437 0.66153347 C98.2409482 0.68163291 99.17495203 0.70173234 100.13725901 0.72244084 C114.51691074 1.04198395 128.78263109 1.7727796 143.09991312 3.20059597 C144.61678169 3.34606421 146.13371343 3.49087459 147.65069437 3.63516629 C152.78079421 4.12426566 157.9092674 4.62896022 163.03741312 5.13809597 C163.847176 5.21750424 164.65693888 5.2969125 165.49124002 5.37872708 C174.44811157 6.26471184 183.38295495 7.28982983 192.29131937 8.57950222 C193.05685633 8.68101086 193.82239328 8.7825195 194.61112833 8.88710415 C200.08413712 9.72261345 204.24836132 11.53016506 209.09991312 14.20059597 C208.79131937 16.10293972 208.79131937 16.10293972 208.09991312 18.20059597 C196.66868108 24.03285722 181.78214025 24.65160247 169.13555765 26.08096707 C166.96789726 26.32639031 164.80149089 26.5812077 162.63506937 26.83731472 C147.48495765 28.60453086 132.38053962 29.38731834 117.13506937 29.80606472 C115.88338968 29.84344754 114.63171 29.88083035 113.34210062 29.91934597 C112.23721292 29.94963894 111.13232523 29.97993191 109.99395609 30.01114285 C106.89595548 30.16186689 103.84326283 30.39938739 100.7566514 30.68375027 C92.63235638 31.37957763 84.49799427 31.558332 76.34991312 31.75137722 C75.08504068 31.78259891 75.08504068 31.78259891 73.79461527 31.81445134 C55.10030326 32.27015029 36.40882726 32.39940909 17.70950937 32.3894769 C15.04584037 32.38806736 12.38217376 32.38818155 9.71850443 32.38827908 C-14.4575245 32.38172234 -38.61134302 32.10770152 -62.77508688 31.32559597 C-64.01452047 31.28639035 -65.25395407 31.24718472 -66.53094625 31.20679104 C-79.98470846 30.76727105 -93.41545133 30.0985648 -106.84539938 29.19278347 C-108.6948667 29.06892773 -108.6948667 29.06892773 -110.58169699 28.94256985 C-111.72848928 28.86126828 -112.87528158 28.7799667 -114.05682516 28.69620144 C-115.066574 28.62480954 -116.07632284 28.55341763 -117.11667013 28.47986233 C-119.76676911 28.21397204 -122.29610669 27.74869501 -124.90008688 27.20059597 C-126.4629738 27.08370006 -128.02887716 27.00233865 -129.59539938 26.95450222 C-130.47043112 26.92308133 -131.34546286 26.89166043 -132.24701071 26.85928738 C-133.62215841 26.81167264 -133.62215841 26.81167264 -135.02508688 26.76309597 C-141.5033498 26.49305354 -147.80452055 26.17463275 -154.15789938 24.79434597 C-157.07410711 24.16291638 -160.00506989 23.6817175 -162.9476943 23.19156277 C-169.50874068 22.06948536 -175.14551515 20.67731639 -180.90008688 17.20059597 C-180.77508688 15.38809597 -180.77508688 15.38809597 -179.90008688 13.20059597 C-175.2553349 10.18621715 -170.32615735 9.17481634 -164.96258688 8.20059597 C-164.05395895 8.03325955 -163.14533102 7.86592312 -162.20916891 7.6935159 C-150.23785962 5.68039475 -138.10541965 4.97431515 -126.00579977 4.15176785 C-125.17122747 4.09450024 -124.33665518 4.03723263 -123.47679281 3.97822964 C-121.89722764 3.87131998 -120.31740668 3.76810363 -118.73732138 3.66917813 C-114.79429246 3.423208 -114.79429246 3.423208 -110.92030096 2.69863999 C-108.86620566 2.19224323 -107.00250946 2.00771706 -104.89160299 1.9064523 C-104.09877165 1.86709498 -103.3059403 1.82773766 -102.48908377 1.7871877 C-101.6234355 1.74918616 -100.75778723 1.71118462 -99.86590719 1.67203152 C-98.9408412 1.62946791 -98.0157752 1.5869043 -97.06267691 1.54305089 C-93.95145782 1.40448872 -90.83997268 1.27561022 -87.72821188 1.14981472 C-86.09289385 1.08307836 -86.09289385 1.08307836 -84.42453909 1.01499379 C-56.28883007 -0.09935299 -28.15173128 -0.06947506 0 0 Z " fill="#ECC041" transform="translate(763.9000868797302,682.7994040250778)"/>
<path d="M0 0 C0.66 0 1.32 0 2 0 C11.66226141 23.96928944 11.66226141 23.96928944 15.0625 33.1875 C17.79103895 40.5802081 20.8007475 47.84516149 23.81567383 55.125 C26.13347949 60.7616504 28.22015249 66.40369439 30.04467773 72.22143555 C30.96597805 74.90104681 32.04256299 77.39727079 33.24609375 79.9609375 C36.27955082 86.54820535 39.06187386 93.22802876 41.8125 99.9375 C42.31458984 101.14212891 42.81667969 102.34675781 43.33398438 103.58789062 C43.80771484 104.74353516 44.28144531 105.89917969 44.76953125 107.08984375 C45.41305542 108.65013306 45.41305542 108.65013306 46.06958008 110.24194336 C47 113 47 113 47 117 C14 117 -19 117 -53 117 C-51.80541649 113.41624948 -50.71464922 110.16915841 -49.1875 106.77734375 C-48.83945312 106.00261719 -48.49140625 105.22789062 -48.1328125 104.4296875 C-47.75898437 103.60726562 -47.38515625 102.78484375 -47 101.9375 C-46.60554687 101.06480469 -46.21109375 100.19210937 -45.8046875 99.29296875 C-42.53654033 92.09893411 -39.14315234 84.96780943 -35.72583008 77.84375 C-32.58355891 71.27503074 -29.56996533 64.65683346 -26.60327148 58.00732422 C-23.32614491 50.68047871 -19.9512213 43.4008129 -16.5625 36.125 C-10.96963974 24.11559476 -5.45448324 12.07283907 0 0 Z " fill="#FADD64" transform="translate(787,391)"/>
<path d="M0 0 C0.66 0 1.32 0 2 0 C2 2.31 2 4.62 2 7 C0.68 7.33 -0.64 7.66 -2 8 C-1.125 2.25 -1.125 2.25 0 0 Z " fill="#E0CC57" transform="translate(787,391)"/>
</svg>
